<svg width="16" height="16" viewBox="0 0 16 16" fill="none" xmlns="http://www.w3.org/2000/svg">
<path d="M11.75 -1.14454e-05C10.8818 -1.14454e-05 10.0858 0.311634 9.38415 0.926291C8.7115 1.51556 8.26367 2.26611 8 2.81188C7.73633 2.26608 7.2885 1.51556 6.61585 0.926291C5.91422 0.311634 5.11822 -1.14454e-05 4.25001 -1.14454e-05C1.82712 -1.14454e-05 0 2.24484 0 5.22174C0 8.43779 2.27947 10.6382 5.73029 13.9693C6.31629 14.535 6.98052 15.1762 7.67086 15.86C7.76187 15.9503 7.87874 16 8 16C8.12126 16 8.23813 15.9503 8.32914 15.86C9.01955 15.1761 9.68375 14.5349 10.2701 13.9689C13.7205 10.6382 16 8.43779 16 5.22174C16 2.24484 14.1729 -1.14454e-05 11.75 -1.14454e-05Z" fill="#B82A2A"/>
</svg>
